<svg xmlns="http://www.w3.org/2000/svg" width="33.548" height="39.921" viewBox="0 0 33.548 39.921"><defs><style>.a{fill:#aac148;}</style></defs><g transform="translate(-32.973 0)"><path class="a" d="M114.4,136.4H94.154a.816.816,0,0,0-.816.816v16.982a.816.816,0,0,0,.816.816h3.61v5.723a2.4,2.4,0,0,0,2.4,2.4h0a2.4,2.4,0,0,0,2.4-2.4v-5.723h3.363v5.723a2.4,2.4,0,0,0,2.4,2.4h0a2.4,2.4,0,0,0,2.4-2.4v-5.723h3.66a.816.816,0,0,0,.816-.816V137.211A.816.816,0,0,0,114.4,136.4Z" transform="translate(-54.532 -123.216)"/><path class="a" d="M35.377,136.354h0a2.4,2.4,0,0,0-2.4,2.4v9.766a2.4,2.4,0,0,0,2.4,2.4h0a2.4,2.4,0,0,0,2.4-2.4v-9.766A2.4,2.4,0,0,0,35.377,136.354Z" transform="translate(0 -123.179)"/><path class="a" d="M332.8,136.354h0a2.4,2.4,0,0,0-2.4,2.4v9.766a2.4,2.4,0,0,0,2.4,2.4h0a2.4,2.4,0,0,0,2.4-2.4v-9.766A2.4,2.4,0,0,0,332.8,136.354Z" transform="translate(-268.685 -123.179)"/><path class="a" d="M95.842,11.988h19.876a.817.817,0,0,0,.8-.985,10.986,10.986,0,0,0-5.359-7.3l1.7-3.066A.43.43,0,0,0,112.1.221L110.392,3.31a11,11,0,0,0-9.225,0L99.455.221A.43.43,0,1,0,98.7.638L100.4,3.7A10.987,10.987,0,0,0,95.043,11,.817.817,0,0,0,95.842,11.988ZM111.71,7.419a.924.924,0,1,1-.924-.924A.924.924,0,0,1,111.71,7.419ZM100.773,6.5a.924.924,0,1,1-.924.924A.924.924,0,0,1,100.773,6.5Z" transform="translate(-56.056 0)"/></g></svg>