<svg xmlns="http://www.w3.org/2000/svg" width="32.693" height="38.274" viewBox="0 0 32.693 38.274"><defs><style>.a{fill:#0a0a0a;}</style></defs><g transform="translate(-37.336)"><g transform="translate(53.048)"><path class="a" d="M255.33,0a8.981,8.981,0,0,0-5.815,3.148,7.8,7.8,0,0,0-1.9,6.062,7.58,7.58,0,0,0,5.868-3A8.421,8.421,0,0,0,255.33,0Z" transform="translate(-247.522)"/></g><g transform="translate(37.336 8.959)"><path class="a" d="M68.921,123.722a9.689,9.689,0,0,0-7.313-3.882c-3.433,0-4.885,1.643-7.27,1.643-2.459,0-4.327-1.639-7.3-1.639a9.927,9.927,0,0,0-7.99,4.83c-2.768,4.292-2.294,12.36,2.191,19.233,1.605,2.459,3.748,5.224,6.552,5.248,2.5.024,3.2-1.6,6.578-1.617s4.021,1.639,6.511,1.612c2.806-.022,5.067-3.086,6.672-5.545a27.577,27.577,0,0,0,2.471-4.641A8.438,8.438,0,0,1,68.921,123.722Z" transform="translate(-37.336 -119.84)"/></g></g></svg>