<svg xmlns="http://www.w3.org/2000/svg" width="123.914" height="114.233" viewBox="0 0 123.914 114.233"><defs><style>.a{opacity:0.1;}.b{fill:#ef4b36;}</style></defs><g class="a" transform="translate(0 -20)"><g transform="translate(0 20)"><path class="b" d="M310.564,130.341a2.42,2.42,0,0,0,3.423-3.423l-.033-.033a2.42,2.42,0,0,0-3.423,3.423Z" transform="translate(-234.84 -100.48)"/><path class="b" d="M114.769,72.76l8.436-8.436a2.42,2.42,0,0,0-1.712-4.131H104.007a52.763,52.763,0,1,0-88.554,49.874,53.139,53.139,0,0,0,9.7,7.672L17.86,130.62a2.42,2.42,0,0,0,2.106,3.612H32.43A2.42,2.42,0,0,0,34.537,133l5.155-9.108a53.4,53.4,0,0,0,26.136,0L70.983,133a2.42,2.42,0,0,0,2.106,1.228H85.554a2.42,2.42,0,0,0,2.106-3.612l-7.291-12.881a53.15,53.15,0,0,0,9.7-7.672,52.581,52.581,0,0,0,13.94-24.74h17.486A2.42,2.42,0,0,0,123.2,81.2Zm-4.425-2.42H93.454l5.307-5.307h16.89ZM31.019,129.392h-6.9l5.268-9.306a52.033,52.033,0,0,0,5.563,2.366Zm50.383,0H74.5l-3.929-6.941a52.033,52.033,0,0,0,5.563-2.366Zm5.242-22.748a48.135,48.135,0,0,1-10.612,8.026c-.047.023-.1.045-.142.071-.029.017-.056.036-.084.054a47.3,47.3,0,0,1-9.279,3.886,2.4,2.4,0,0,0-.376.109,48.39,48.39,0,0,1-26.782,0,2.4,2.4,0,0,0-.376-.109,47.288,47.288,0,0,1-9.279-3.886c-.028-.018-.055-.037-.084-.053-.047-.026-.094-.048-.142-.071a48.129,48.129,0,0,1-10.612-8.026A47.92,47.92,0,1,1,99.011,60.193H97.758a2.42,2.42,0,0,0-1.711.709l-6.423,6.423A37.288,37.288,0,0,0,85.4,54.756a2.42,2.42,0,0,0-4.238,2.34A32.138,32.138,0,0,1,85.076,70.34H74.4a21.789,21.789,0,1,0,0,4.84H85.065a32.4,32.4,0,1,1-16.64-30.827,2.42,2.42,0,1,0,2.34-4.238A37.539,37.539,0,0,0,47.78,35.822,37.272,37.272,0,1,0,89.632,78.2l6.415,6.415a2.421,2.421,0,0,0,1.711.709H99.01A47.764,47.764,0,0,1,86.644,106.644ZM60.664,68.2a2.42,2.42,0,0,0-3.306-.886L51.55,70.664a2.42,2.42,0,0,0,0,4.192l5.808,3.353A2.418,2.418,0,0,0,60.8,75.18h8.73a16.811,16.811,0,0,1-4.79,9.559h0a16.937,16.937,0,1,1,4.79-14.4H60.8A2.414,2.414,0,0,0,60.664,68.2Zm38.1,12.29L93.454,75.18h16.89l5.307,5.306Z" transform="translate(0 -20)"/></g></g></svg>