<svg xmlns="http://www.w3.org/2000/svg" width="34.936" height="39.254" viewBox="0 0 34.936 39.254"><defs><style>.a{fill:#e10098;}</style></defs><path class="a" d="M44.533,45.617l-1.441-.832,16.053-27.8,1.441.832Z" transform="translate(-41.353 -15.699)"/><path class="a" d="M39.8,272.2H71.907v1.664H39.8Z" transform="translate(-38.391 -245.336)"/><path class="a" d="M62.2,60.95,46.138,51.678l.832-1.441,16.059,9.272ZM76.148,36.784,60.089,27.512l.832-1.441L76.98,35.343Z" transform="translate(-44.093 -23.879)"/><path class="a" d="M47.014,36.721l-.832-1.441,16.059-9.272.832,1.441Z" transform="translate(-44.133 -23.822)"/><path class="a" d="M81.576,45.62l-16.053-27.8,1.441-.832,16.053,27.8ZM52.5,26.056h1.664V44.6H52.5Zm27.907,0h1.664V44.6H80.407Z" transform="translate(-49.818 -15.702)"/><path class="a" d="M197,283.315l-.727-1.259,13.967-8.064.727,1.259Z" transform="translate(-179.178 -246.948)"/><path class="a" d="M60.2,33.64a3.5,3.5,0,1,1-1.283-4.781A3.5,3.5,0,0,1,60.2,33.64M32.272,17.512a3.5,3.5,0,1,1-1.283-4.781,3.5,3.5,0,0,1,1.283,4.781M26.217,33.64A3.5,3.5,0,1,1,31,34.924a3.506,3.506,0,0,1-4.781-1.283M54.144,17.512a3.5,3.5,0,1,1,4.781,1.283,3.506,3.506,0,0,1-4.781-1.283M43.208,43.454a3.5,3.5,0,1,1,3.5-3.5,3.5,3.5,0,0,1-3.5,3.5m0-32.257a3.5,3.5,0,1,1,3.5-3.5,3.5,3.5,0,0,1-3.5,3.5" transform="translate(-25.74 -4.2)"/></svg>