<svg xmlns="http://www.w3.org/2000/svg" width="18.659" height="41.575" viewBox="0 0 18.659 41.575"><defs><style>.a{fill:#10aa50;}.b{fill:#b8c4c2;}.c{fill:#12924f;}</style></defs><g transform="translate(76.954 -34)"><path class="a" d="M18.375,16.555C16.165,6.88,11.619,4.3,10.452,2.5A17.844,17.844,0,0,1,9.159,0a2.419,2.419,0,0,1-.917,2.043C6.782,3.336.569,8.423.069,19.39c-.5,10.216,7.506,16.555,8.59,17.222a2.3,2.3,0,0,0,2.293-.375c3.836-2.627,9.132-9.716,7.423-19.682" transform="translate(-77 34)"/><path class="b" d="M21.476,74.7a20.074,20.074,0,0,1-.876,5.463q.249,2.486.584,4.962h.834a41.194,41.194,0,0,1,.917-5.338C21.851,79.245,21.517,76.91,21.476,74.7Z" transform="translate(-88.983 -9.55)"/><path class="c" d="M23.868,36.529h0c-1.084-.5-1.418-2.877-1.459-5.087a99.328,99.328,0,0,0,.25-10.925C22.617,18.6,22.7,2.793,22.2.5c.208.459.709,1.5,1.168,2.293,1.168,1.835,5.713,4.378,7.923,14.053C32.959,26.813,27.746,33.86,23.868,36.529Z" transform="translate(-89.916 33.708)"/></g></svg>