<svg xmlns="http://www.w3.org/2000/svg" xmlns:xlink="http://www.w3.org/1999/xlink" width="40" height="40" viewBox="0 0 40 40"><defs><style>.a{fill:#8ed32e;}.b{clip-path:url(#a);}</style><clipPath id="a"><rect class="a" width="40" height="40" transform="translate(0.184 0.184)"/></clipPath></defs><g class="b" transform="translate(-0.184 -0.184)"><path class="a" d="M20.454,1.478a3.359,3.359,0,0,1,3.293,0l15.128,8.53a3.11,3.11,0,0,1,1.571,2.677v17.1a3.144,3.144,0,0,1-1.686,2.735L23.711,41.006a3.293,3.293,0,0,1-3.342-.092L15.853,38.3a2.67,2.67,0,0,1-.871-.627c.192-.26.535-.291.813-.405a9.681,9.681,0,0,0,1.781-.831.408.408,0,0,1,.463.027L21.89,38.7c.275.158.553-.051.789-.184l14.774-8.338a.488.488,0,0,0,.268-.481V12.759a.528.528,0,0,0-.316-.528L22.4,3.78a.521.521,0,0,0-.589,0L6.82,12.248a.521.521,0,0,0-.316.525V29.707a.477.477,0,0,0,.272.475l4.005,2.261a3.143,3.143,0,0,0,2.5.335,1.9,1.9,0,0,0,1.23-1.785l0-16.832a.421.421,0,0,1,.46-.43H16.9a.451.451,0,0,1,.418.513l0,16.938a4.3,4.3,0,0,1-2.009,3.879,6.192,6.192,0,0,1-5.53-.152L5.472,32.531A3.1,3.1,0,0,1,3.786,29.8v-17.1A3.115,3.115,0,0,1,5.409,9.983Zm4.363,11.851a12,12,0,0,1,6.5.994,4.917,4.917,0,0,1,2.4,4.253.456.456,0,0,1-.5.338c-.634,0-1.269.009-1.905,0-.27.01-.425-.238-.46-.476a2.9,2.9,0,0,0-1.387-2,8.223,8.223,0,0,0-3.8-.545,5.183,5.183,0,0,0-2.723.678,1.728,1.728,0,0,0-.574,1.928c.2.485.763.641,1.221.785,2.637.689,5.43.633,8.017,1.528a3.777,3.777,0,0,1,2.485,2.214,4.727,4.727,0,0,1-.8,4.5A6.392,6.392,0,0,1,29.9,29.349a16.243,16.243,0,0,1-5.114.215,8.068,8.068,0,0,1-4.5-1.693,4.723,4.723,0,0,1-1.52-3.724.428.428,0,0,1,.469-.376h1.9a.447.447,0,0,1,.456.443,2.87,2.87,0,0,0,1.082,2.026c1.3.839,2.93.781,4.417.8a5.993,5.993,0,0,0,3.622-.886,2,2,0,0,0,.545-1.91c-.156-.565-.761-.827-1.267-1.013-2.6-.823-5.427-.524-8-1.457a3.894,3.894,0,0,1-2.46-2.144,4.391,4.391,0,0,1,.876-4.568,7.05,7.05,0,0,1,4.4-1.766Z" transform="translate(-1.833 -1.048)"/></g></svg>